# xmcd
#
# Track frame offsets: 
#        150
#        6782
#        21096
#        29561
#        36857
#        46614
#        57655
#        65568
#        71886
#        86043
#        97291
#        118272
#
# Disc length: 1731 seconds
#
# Revision: 0
# Processed by: cddbd v1.5.2PL0 Copyright (c) Steve Scherf et al.
# Submitted via: ExactAudioCopy v0.99pb5
#
DISCID=ae06c10c
DTITLE=Spirit Of America - Spirit Of America
DYEAR=2001
DGENRE=Country
TTITLE0=Star Spangled Banner
TTITLE1=God Bless The USA
TTITLE2=God Bless America
TTITLE3=My Country Tis Of Thee
TTITLE4=This Is My Country
TTITLE5=You're A Grand Old Flag
TTITLE6=America The Beautiful
TTITLE7=Yankee Doodle Dandy
TTITLE8=Stars and Stripes Forever
TTITLE9=This Land Is your Land
TTITLE10=Armed Forces Medley
TTITLE11=Battle Hymn Of The Republic
EXTD=
EXTT0=
EXTT1=
EXTT2=
EXTT3=
EXTT4=
EXTT5=
EXTT6=
EXTT7=
EXTT8=
EXTT9=
EXTT10=
EXTT11=
PLAYORDER=
